<svg
   xmlns:dc="http://purl.org/dc/elements/1.1/"
   xmlns:cc="http://creativecommons.org/ns#"
   xmlns:rdf="http://www.w3.org/1999/02/22-rdf-syntax-ns#"
   xmlns:svg="http://www.w3.org/2000/svg"
   xmlns="http://www.w3.org/2000/svg"
   xmlns:sodipodi="http://sodipodi.sourceforge.net/DTD/sodipodi-0.dtd"
   xmlns:inkscape="http://www.inkscape.org/namespaces/inkscape"
   width="22.419979"
   height="21.97057"
   viewBox="0 0 22.419981 21.97057"
   xml:space="preserve"
   style="clip-rule:evenodd;fill-rule:evenodd;stroke-linejoin:round;stroke-miterlimit:1.41421"
   version="1.1"
   id="svg11"
   sodipodi:docname="id-301022---mastodon-alt.svg"
   inkscape:version="1.0.2 (e86c870879, 2021-01-15)"><metadata
     id="metadata17"><rdf:RDF><cc:Work
         rdf:about=""><dc:format>image/svg+xml</dc:format><dc:type
           rdf:resource="http://purl.org/dc/dcmitype/StillImage" /><dc:title></dc:title></cc:Work></rdf:RDF></metadata><defs
     id="defs15" /><sodipodi:namedview
     pagecolor="#ffffff"
     bordercolor="#666666"
     borderopacity="1"
     objecttolerance="10"
     gridtolerance="10"
     guidetolerance="10"
     inkscape:pageopacity="0"
     inkscape:pageshadow="2"
     inkscape:window-width="1360"
     inkscape:window-height="702"
     id="namedview13"
     showgrid="false"
     inkscape:zoom="11.064807"
     inkscape:cx="45.56957"
     inkscape:cy="14.039762"
     inkscape:window-x="0"
     inkscape:window-y="0"
     inkscape:window-maximized="1"
     inkscape:current-layer="svg11"
     fit-margin-top="0"
     fit-margin-left="0"
     fit-margin-right="0"
     fit-margin-bottom="0"
     inkscape:document-rotation="0" /><clipPath
     id="_clip1"><rect
       x="35.299999"
       y="0"
       width="929.42401"
       height="1000"
       id="rect2" /></clipPath><g
     clip-path="url(#_clip1)"
     id="g9"
     transform="matrix(0.02197057,0,0,0.02197057,-0.7755611,0)"><path
       d="m 944.933,599.49 c -13.667,70.541 -122.365,147.741 -247.21,162.703 -65.106,7.796 -129.193,14.962 -197.548,11.815 -111.778,-5.139 -199.979,-26.777 -199.979,-26.777 0,10.921 0.671,21.32 2.013,31.044 14.532,110.712 109.384,117.345 199.239,120.437 90.681,3.114 171.425,-22.44 171.425,-22.44 l 3.731,82.281 c 0,0 -63.431,34.185 -176.429,40.473 -62.309,3.437 -139.677,-1.573 -229.789,-25.511 C 74.947,921.599 41.336,712.519 36.194,500.372 34.631,437.385 35.592,377.991 35.592,328.316 35.592,111.385 177.213,47.8 177.213,47.8 248.617,14.886 371.154,1.045 498.538,0 h 3.13 c 127.384,1.045 249.996,14.886 321.4,47.8 0,0 141.621,63.585 141.621,280.516 0,0 1.771,160.052 -19.756,271.174"
       style="fill:#3088d4;fill-rule:nonzero"
       id="path5" /><path
       d="m 317.404,415.756 c 0,38.85 -31.383,70.347 -70.1,70.347 -38.71,0 -70.088,-31.497 -70.088,-70.347 0,-38.851 31.378,-70.353 70.088,-70.353 38.717,0 70.1,31.502 70.1,70.353 m 252.702,0 c 0,38.85 -31.388,70.347 -70.099,70.347 -38.711,0 -70.094,-31.497 -70.094,-70.347 0,-38.851 31.383,-70.353 70.094,-70.353 38.711,0 70.099,31.502 70.099,70.353 m 252.699,0 c 0,38.85 -31.384,70.347 -70.094,70.347 -38.711,0 -70.094,-31.497 -70.094,-70.347 0,-38.851 31.383,-70.353 70.094,-70.353 38.71,0 70.094,31.502 70.094,70.353"
       style="fill:#ffffff;fill-rule:nonzero"
       id="path7" /></g></svg>
