<svg
   xmlns:dc="http://purl.org/dc/elements/1.1/"
   xmlns:cc="http://creativecommons.org/ns#"
   xmlns:rdf="http://www.w3.org/1999/02/22-rdf-syntax-ns#"
   xmlns:svg="http://www.w3.org/2000/svg"
   xmlns="http://www.w3.org/2000/svg"
   xmlns:sodipodi="http://sodipodi.sourceforge.net/DTD/sodipodi-0.dtd"
   xmlns:inkscape="http://www.inkscape.org/namespaces/inkscape"
   width="21.933323"
   height="23.51232"
   viewBox="0 0 21.933323 23.51232"
   xml:space="preserve"
   style="clip-rule:evenodd;fill-rule:evenodd;stroke-linejoin:round;stroke-miterlimit:1.41421"
   version="1.1"
   id="svg11"
   sodipodi:docname="id-301021---mastodon.svg"
   inkscape:version="1.0.2 (e86c870879, 2021-01-15)"><metadata
     id="metadata17"><rdf:RDF><cc:Work
         rdf:about=""><dc:format>image/svg+xml</dc:format><dc:type
           rdf:resource="http://purl.org/dc/dcmitype/StillImage" /><dc:title></dc:title></cc:Work></rdf:RDF></metadata><defs
     id="defs15" /><sodipodi:namedview
     pagecolor="#ffffff"
     bordercolor="#666666"
     borderopacity="1"
     objecttolerance="10"
     gridtolerance="10"
     guidetolerance="10"
     inkscape:pageopacity="0"
     inkscape:pageshadow="2"
     inkscape:window-width="1360"
     inkscape:window-height="702"
     id="namedview13"
     showgrid="false"
     inkscape:zoom="3.912"
     inkscape:cx="70.194111"
     inkscape:cy="27.595811"
     inkscape:window-x="0"
     inkscape:window-y="0"
     inkscape:window-maximized="1"
     inkscape:current-layer="svg11"
     fit-margin-top="0"
     fit-margin-left="0"
     fit-margin-right="0"
     fit-margin-bottom="0" /><clipPath
     id="_clip1"><rect
       x="33.599998"
       y="-0.035"
       width="932.84399"
       height="1000"
       id="rect2" /></clipPath><g
     clip-path="url(#_clip1)"
     id="g9"
     transform="matrix(0.02351232,0,0,0.02351232,-0.79001832,8.229312e-4)"><path
       d="M 946.586,599.455 C 932.873,669.996 823.77,747.197 698.465,762.158 633.124,769.954 568.791,777.12 500.19,773.973 387.999,768.834 299.474,747.197 299.474,747.197 c 0,10.92 0.673,21.319 2.02,31.044 14.586,110.711 109.787,117.344 199.967,120.436 91.021,3.114 172.068,-22.44 172.068,-22.44 l 3.74,82.281 c 0,0 -63.666,34.185 -177.079,40.473 -62.539,3.437 -140.192,-1.573 -230.636,-25.511 C 73.396,921.564 39.661,712.484 34.499,500.337 32.926,437.35 33.896,377.956 33.896,328.281 33.896,111.35 176.038,47.765 176.038,47.765 247.71,14.851 370.693,1.01 498.546,-0.035 h 3.142 c 127.853,1.045 250.917,14.886 322.583,47.8 0,0 142.138,63.585 142.138,280.516 0,0 1.783,160.053 -19.823,271.174"
       style="fill:#3088d4;fill-rule:nonzero"
       id="path5" /><path
       d="M 798.748,345.11 V 607.777 H 694.678 V 352.831 c 0,-53.743 -22.614,-81.021 -67.847,-81.021 -50.012,0 -75.077,32.359 -75.077,96.343 V 507.7 H 448.297 V 368.153 c 0,-63.984 -25.07,-96.343 -75.082,-96.343 -45.233,0 -67.847,27.278 -67.847,81.021 V 607.777 H 201.298 V 345.11 c 0,-53.683 13.669,-96.343 41.127,-127.904 28.314,-31.561 65.395,-47.741 111.425,-47.741 53.256,0 93.585,20.468 120.251,61.41 l 25.922,43.451 25.927,-43.451 c 26.66,-40.942 66.99,-61.41 120.251,-61.41 46.025,0 83.106,16.18 111.425,47.741 27.453,31.561 41.122,74.221 41.122,127.904"
       style="fill:#ffffff;fill-rule:nonzero"
       id="path7" /></g></svg>
